<svg xmlns="http://www.w3.org/2000/svg" version="1.1" xmlns:xlink="http://www.w3.org/1999/xlink" xmlns:svgjs="http://svgjs.dev/svgjs" width="1000" height="1000" viewBox="0 0 1000 1000"><rect width="1000" height="1000" fill="#111111"></rect><g transform="matrix(0.7,0,0,0.7,149.57575757575756,282.1265587044535)"><svg viewBox="0 0 396 247" data-background-color="#111111" preserveAspectRatio="xMidYMid meet" height="623" width="1000" xmlns="http://www.w3.org/2000/svg" xmlns:xlink="http://www.w3.org/1999/xlink"><g id="tight-bounds" transform="matrix(1,0,0,1,0.2400000000000091,-0.09999999999999432)"><svg viewBox="0 0 395.52 247.2" height="247.2" width="395.52"><g><svg></svg></g><g><svg viewBox="0 0 395.52 247.2" height="247.2" width="395.52"><g transform="matrix(1,0,0,1,75.54432000000001,89.69631468438538)"><svg viewBox="0 0 244.43135999999996 67.80737063122923" height="67.80737063122923" width="244.43135999999996"><g><svg viewBox="0 0 244.43135999999996 67.80737063122923" height="67.80737063122923" width="244.43135999999996"><g><svg viewBox="0 0 244.43136 67.80737063122925" height="67.80737063122923" width="244.43135999999996"><g><svg viewBox="0 0 244.43136 67.80737063122925" height="67.80737063122925" width="244.43136"><g id="textblocktransform"><svg viewBox="0 0 244.43136 67.80737063122925" height="67.80737063122925" width="244.43136" id="textblock"><g><svg viewBox="0 0 244.43136 67.80737063122925" height="67.80737063122925" width="244.43136"><g transform="matrix(1,0,0,1,0,0)"><svg width="244.43136" viewBox="4.5 -32.79999923706055 120.38999938964844 33.39999771118164" height="67.80737063122925" data-palette-color="#ffffff"><path d="M8.65 0L4.5 0 4.5-32.8 14.75-32.8Q17.25-32.8 19.38-32.33 21.5-31.85 23.03-30.75 24.55-29.65 25.4-27.9 26.25-26.15 26.25-23.6L26.25-23.6Q26.25-19.75 24.25-17.45 22.25-15.15 18.85-14.3L18.85-14.3 27.2 0 22.5 0 14.6-13.85 8.65-13.85 8.65 0ZM8.65-29.45L8.65-17.25 14.15-17.25Q18-17.25 20.05-18.82 22.1-20.4 22.1-23.6L22.1-23.6Q22.1-26.85 20.05-28.15 18-29.45 14.15-29.45L14.15-29.45 8.65-29.45ZM41.9 0.6L41.9 0.6Q39.45 0.6 37.32-0.28 35.2-1.15 33.62-2.78 32.05-4.4 31.15-6.75 30.25-9.1 30.25-12.1L30.25-12.1Q30.25-15.1 31.17-17.48 32.1-19.85 33.62-21.5 35.15-23.15 37.1-24.03 39.05-24.9 41.15-24.9L41.15-24.9Q43.45-24.9 45.27-24.1 47.1-23.3 48.32-21.8 49.55-20.3 50.2-18.2 50.85-16.1 50.85-13.5L50.85-13.5Q50.85-12.85 50.82-12.23 50.8-11.6 50.7-11.15L50.7-11.15 34.3-11.15Q34.55-7.25 36.72-4.98 38.9-2.7 42.4-2.7L42.4-2.7Q44.15-2.7 45.62-3.23 47.1-3.75 48.45-4.6L48.45-4.6 49.9-1.9Q48.3-0.9 46.35-0.15 44.4 0.6 41.9 0.6ZM34.25-14.1L34.25-14.1 47.25-14.1Q47.25-17.8 45.67-19.73 44.1-21.65 41.25-21.65L41.25-21.65Q39.95-21.65 38.77-21.15 37.6-20.65 36.65-19.68 35.7-18.7 35.07-17.3 34.45-15.9 34.25-14.1ZM61.4 0L57.25 0 57.25-32.8 76.15-32.8 76.15-29.3 61.4-29.3 61.4-18.2 73.9-18.2 73.9-14.7 61.4-14.7 61.4 0ZM99.39 0L81.39 0 81.39-3.4 88.69-3.4 88.69-26.9 82.89-26.9 82.89-29.55Q85.09-29.95 86.72-30.53 88.34-31.1 89.64-31.9L89.64-31.9 92.79-31.9 92.79-3.4 99.39-3.4 99.39 0ZM124.89 0L104.29 0 104.29-2.45Q107.89-6.05 110.69-8.95 113.49-11.85 115.39-14.33 117.29-16.8 118.29-18.88 119.29-20.95 119.29-22.9L119.29-22.9Q119.29-25.65 117.79-27.4 116.29-29.15 113.24-29.15L113.24-29.15Q111.24-29.15 109.54-28.03 107.84-26.9 106.44-25.3L106.44-25.3 104.09-27.65Q106.09-29.85 108.34-31.18 110.59-32.5 113.74-32.5L113.74-32.5Q118.19-32.5 120.74-29.93 123.29-27.35 123.29-23.1L123.29-23.1Q123.29-20.85 122.32-18.57 121.34-16.3 119.62-13.88 117.89-11.45 115.52-8.83 113.14-6.2 110.29-3.25L110.29-3.25Q111.59-3.35 112.99-3.45 114.39-3.55 115.64-3.55L115.64-3.55 124.89-3.55 124.89 0Z" opacity="1" transform="matrix(1,0,0,1,0,0)" fill="#ffffff" class="undefined-text-0" data-fill-palette-color="primary" id="text-0"></path></svg></g></svg></g></svg></g></svg></g></svg></g></svg></g></svg></g><path d="M191.306 83.696L191.306 26.382 385.742 26.382 385.742 220.818 191.306 220.818 191.306 163.504 197.421 163.504 197.421 214.703 379.627 214.703 379.627 32.497 197.421 32.497 197.421 83.696Z" fill="#ffffff" stroke="transparent" data-fill-palette-color="primary"></path></svg></g><defs></defs></svg><rect width="395.52" height="247.2" fill="none" stroke="none" visibility="hidden"></rect></g></svg></g></svg>